<svg xmlns="http://www.w3.org/2000/svg" width="1000" height="1500" viewBox="0 0 1000 1500">
  <rect width="1000" height="1500" fill="#F5EEE8"/>
  <circle cx="70" cy="75" r="8" fill="#6E3742"/><circle cx="100" cy="75" r="8" fill="#6E3742"/><circle cx="130" cy="75" r="8" fill="#6E3742"/>
  <rect x="58" y="115" width="884" height="6" rx="3" fill="#6E3742" opacity=".13"/>
  <rect x="58" y="155" width="250" height="50" rx="25" fill="#6E3742"/>
  <text x="183" y="189" text-anchor="middle" font-family="Arial, Helvetica, sans-serif" font-size="21" font-weight="800" letter-spacing="1.8" fill="#fff">FREE</text>
  <circle cx="825" cy="208" r="68" fill="none" stroke="#6E3742" stroke-width="8"/><path d="M770 208 H880 M825 153 V263" stroke="#6E3742" stroke-width="8"/>
  <text x="58" y="365" font-family="Arial, Helvetica, sans-serif" font-size="76" font-weight="900" fill="#6E3742">YOUR NEXT</text><text x="58" y="451" font-family="Arial, Helvetica, sans-serif" font-size="76" font-weight="900" fill="#6E3742">GOODNOTES FREEBIE</text>
  <text x="62" y="590" font-family="Georgia, 'Times New Roman', serif" font-size="31" font-style="italic" fill="#6E3742" opacity=".84">Useful digital notebook templates — not a teaser.</text>
  
  <g transform="translate(0 20) rotate(-1.3 500 910)">
    <rect x="150" y="690" width="700" height="470" rx="34" fill="#1A1B1C" opacity=".11" transform="translate(14 18)"/>
    <rect x="140" y="675" width="700" height="470" rx="34" fill="#202424"/>
    <rect x="170" y="705" width="640" height="410" rx="18" fill="#FCFBF6"/>
    <rect x="205" y="742" width="195" height="250" rx="8" fill="#6E3742"/>
    <rect x="430" y="742" width="335" height="34" rx="6" fill="#DEC8B5"/>
    <rect x="430" y="802" width="300" height="10" rx="5" fill="#6E3742" opacity=".20"/>
    <rect x="430" y="835" width="270" height="10" rx="5" fill="#6E3742" opacity=".14"/>
    <rect x="430" y="900" width="125" height="105" rx="7" fill="#B8897C" opacity=".35"/>
    <rect x="575" y="900" width="125" height="105" rx="7" fill="#B8897C" opacity=".20"/>
    <rect x="720" y="900" width="45" height="105" rx="7" fill="#6E3742" opacity=".12"/>
    <text x="238" y="1040" font-family="Arial, Helvetica, sans-serif" font-size="17" font-weight="800" fill="#FFFFFF">OLIVE ARCHIVE</text>
    <text x="430" y="1080" font-family="Arial, Helvetica, sans-serif" font-size="19" font-weight="800" fill="#6E3742">DIGITAL PDF TEMPLATE</text>
  </g>

  <rect x="58" y="1245" width="884" height="4" rx="2" fill="#6E3742" opacity=".12"/>
  <text x="58" y="1315" font-family="Arial, Helvetica, sans-serif" font-size="23" font-weight="800" fill="#6E3742">5 bonus paper packs</text>
  <text x="58" y="1360" font-family="Arial, Helvetica, sans-serif" font-size="20" font-weight="600" fill="#6E3742" opacity=".72">for Goodnotes · digital PDF download</text>
  <rect x="705" y="1287" width="237" height="66" rx="33" fill="#6E3742"/>
  <text x="824" y="1330" text-anchor="middle" font-family="Arial, Helvetica, sans-serif" font-size="20" font-weight="800" fill="#fff">GET IT FREE →</text>
  <text x="58" y="1440" font-family="Arial, Helvetica, sans-serif" font-size="15" font-weight="700" letter-spacing="1.2" fill="#6E3742" opacity=".55">TINY SYSTEMS CO. · PIN 22</text>
</svg>